<mxfile host="app.diagrams.net" agent="Mozilla/5.0 (Windows NT 10.0; Win64; x64) AppleWebKit/537.36 (KHTML, like Gecko) Chrome/134.0.0.0 Safari/537.36" version="26.1.1">
  <diagram name="Page-1" id="5ybP3fVxR_O7OG9nowo5">
    <mxGraphModel dx="954" dy="566" grid="1" gridSize="10" guides="1" tooltips="1" connect="1" arrows="1" fold="1" page="1" pageScale="1" pageWidth="827" pageHeight="1169" math="0" shadow="0" adaptiveColors="auto">
      <root>
        <mxCell id="0" />
        <mxCell id="1" parent="0" />
        <mxCell id="vFmSvjuSKfPeqINILVZh-81" value="Admin" style="whiteSpace=wrap;strokeWidth=2;fontStyle=1;fontSize=13;fillColor=#eeeeee;strokeColor=#36393d;" vertex="1" parent="1">
          <mxGeometry x="105" y="147" width="105" height="54" as="geometry" />
        </mxCell>
        <mxCell id="vFmSvjuSKfPeqINILVZh-82" value="Member" style="whiteSpace=wrap;strokeWidth=2;fontStyle=1;fontSize=13;fillColor=#eeeeee;strokeColor=#36393d;" vertex="1" parent="1">
          <mxGeometry x="20" y="274" width="117" height="54" as="geometry" />
        </mxCell>
        <mxCell id="vFmSvjuSKfPeqINILVZh-83" value="Event" style="whiteSpace=wrap;strokeWidth=2;fontStyle=1;fontSize=13;fillColor=#eeeeee;strokeColor=#36393d;" vertex="1" parent="1">
          <mxGeometry x="187" y="274" width="100" height="54" as="geometry" />
        </mxCell>
        <mxCell id="vFmSvjuSKfPeqINILVZh-84" value="System" style="whiteSpace=wrap;strokeWidth=2;fontStyle=1;fontSize=13;fillColor=#eeeeee;strokeColor=#36393d;" vertex="1" parent="1">
          <mxGeometry x="281" y="20" width="110" height="54" as="geometry" />
        </mxCell>
        <mxCell id="vFmSvjuSKfPeqINILVZh-85" value="Visit" style="whiteSpace=wrap;strokeWidth=2;fontStyle=1;fontSize=13;fillColor=#eeeeee;strokeColor=#36393d;" vertex="1" parent="1">
          <mxGeometry x="430" y="147" width="91" height="54" as="geometry" />
        </mxCell>
        <mxCell id="vFmSvjuSKfPeqINILVZh-86" value="Searches" style="curved=1;startArrow=none;endArrow=block;exitX=0.18;exitY=1;entryX=0.5;entryY=0;rounded=0;fontStyle=1;strokeWidth=2;fontSize=13;fillColor=#eeeeee;strokeColor=#36393d;" edge="1" parent="1" source="vFmSvjuSKfPeqINILVZh-81" target="vFmSvjuSKfPeqINILVZh-82">
          <mxGeometry relative="1" as="geometry">
            <Array as="points">
              <mxPoint x="78" y="238" />
            </Array>
          </mxGeometry>
        </mxCell>
        <mxCell id="vFmSvjuSKfPeqINILVZh-87" value="Searches" style="curved=1;startArrow=none;endArrow=block;exitX=0.82;exitY=1;entryX=0.5;entryY=0;rounded=0;fontStyle=1;strokeWidth=2;fontSize=13;fillColor=#eeeeee;strokeColor=#36393d;" edge="1" parent="1" source="vFmSvjuSKfPeqINILVZh-81" target="vFmSvjuSKfPeqINILVZh-83">
          <mxGeometry relative="1" as="geometry">
            <Array as="points">
              <mxPoint x="237" y="238" />
            </Array>
          </mxGeometry>
        </mxCell>
        <mxCell id="vFmSvjuSKfPeqINILVZh-88" value="Displays Member History" style="curved=1;startArrow=none;endArrow=block;exitX=0;exitY=0.73;entryX=0.09;entryY=0;rounded=0;fontStyle=1;strokeWidth=2;fontSize=13;fillColor=#eeeeee;strokeColor=#36393d;" edge="1" parent="1" source="vFmSvjuSKfPeqINILVZh-84" target="vFmSvjuSKfPeqINILVZh-81">
          <mxGeometry relative="1" as="geometry">
            <Array as="points">
              <mxPoint x="57" y="111" />
            </Array>
          </mxGeometry>
        </mxCell>
        <mxCell id="vFmSvjuSKfPeqINILVZh-89" value="Displays Event Attendees" style="curved=1;startArrow=none;endArrow=block;exitX=0.2;exitY=1;entryX=0.91;entryY=0;rounded=0;fontStyle=1;strokeWidth=2;fontSize=13;fillColor=#eeeeee;strokeColor=#36393d;" edge="1" parent="1" source="vFmSvjuSKfPeqINILVZh-84" target="vFmSvjuSKfPeqINILVZh-81">
          <mxGeometry relative="1" as="geometry">
            <Array as="points">
              <mxPoint x="258" y="111" />
            </Array>
          </mxGeometry>
        </mxCell>
        <mxCell id="vFmSvjuSKfPeqINILVZh-90" value="Logs Attendance" style="curved=1;startArrow=none;endArrow=block;exitX=0.79;exitY=0;entryX=1;entryY=0.82;rounded=0;fontStyle=1;strokeWidth=2;fontSize=13;fillColor=#eeeeee;strokeColor=#36393d;" edge="1" parent="1" source="vFmSvjuSKfPeqINILVZh-85" target="vFmSvjuSKfPeqINILVZh-84">
          <mxGeometry relative="1" as="geometry">
            <Array as="points">
              <mxPoint x="537" y="111" />
            </Array>
          </mxGeometry>
        </mxCell>
        <mxCell id="vFmSvjuSKfPeqINILVZh-91" value="Stores Data" style="curved=1;startArrow=none;endArrow=block;exitX=0.8;exitY=1;entryX=0.21;entryY=0;rounded=0;fontStyle=1;strokeWidth=2;fontSize=13;fillColor=#eeeeee;strokeColor=#36393d;" edge="1" parent="1" source="vFmSvjuSKfPeqINILVZh-84" target="vFmSvjuSKfPeqINILVZh-85">
          <mxGeometry relative="1" as="geometry">
            <Array as="points">
              <mxPoint x="413" y="111" />
            </Array>
          </mxGeometry>
        </mxCell>
      </root>
    </mxGraphModel>
  </diagram>
</mxfile>
